<?xml version="1.0" standalone="no"?>
<!DOCTYPE svg PUBLIC "-//W3C//DTD SVG 20010904//EN"
 "http://www.w3.org/TR/2001/REC-SVG-20010904/DTD/svg10.dtd">
<svg version="1.0" xmlns="http://www.w3.org/2000/svg"
 width="400.000000pt" height="400.000000pt" viewBox="0 0 400.000000 400.000000"
 preserveAspectRatio="xMidYMid meet">
<metadata>
Created by potrace 1.14, written by Peter Selinger 2001-2017
</metadata>
<g transform="translate(0.000000,400.000000) scale(0.100000,-0.100000)"
fill="#000000" stroke="none">
<path d="M1680 3324 c-464 -33 -839 -105 -1155 -221 -157 -58 -343 -146 -457
-216 l-68 -42 0 -1422 0 -1423 2000 0 2000 0 0 1419 0 1420 -82 51 c-343 213
-821 357 -1378 416 -147 15 -725 27 -860 18z m-744 -819 c170 -83 210 -318 81
-470 -14 -17 -49 -44 -79 -60 -46 -26 -63 -30 -133 -30 -96 0 -156 26 -216 93
-48 55 -69 117 -69 203 0 81 23 140 76 199 89 98 220 124 340 65z m2377 -365
c195 -98 210 -395 27 -516 -162 -107 -381 -25 -436 163 -42 145 42 317 179
367 63 23 170 16 230 -14z m-2154 -389 c47 -17 141 -62 210 -99 70 -37 153
-80 186 -94 251 -111 642 -148 969 -92 169 29 239 28 340 -6 130 -43 206 -134
214 -255 13 -206 -130 -341 -433 -407 -94 -20 -605 -17 -765 5 -366 51 -577
110 -813 227 -187 94 -279 178 -349 319 -27 53 -33 78 -36 150 -4 73 -1 94 16
127 38 75 112 130 207 155 57 15 166 2 254 -30z"/>
</g>
</svg>
